<svg width="24" height="25" viewBox="0 0 24 25" fill="none" xmlns="http://www.w3.org/2000/svg">
<mask id="mask0_1_3809" style="mask-type:alpha" maskUnits="userSpaceOnUse" x="0" y="0" width="24" height="25">
<rect y="0.5" width="24" height="24" fill="#D9D9D9"/>
</mask>
<g mask="url(#mask0_1_3809)">
<path d="M16.175 13.5001H5C4.71667 13.5001 4.47917 13.4043 4.2875 13.2126C4.09583 13.0209 4 12.7834 4 12.5001C4 12.2168 4.09583 11.9793 4.2875 11.7876C4.47917 11.5959 4.71667 11.5001 5 11.5001H16.175L11.275 6.60011C11.075 6.40011 10.9792 6.16678 10.9875 5.90011C10.9958 5.63344 11.1 5.40011 11.3 5.20011C11.5 5.01678 11.7333 4.92094 12 4.91261C12.2667 4.90428 12.5 5.00011 12.7 5.20011L19.3 11.8001C19.4 11.9001 19.4708 12.0084 19.5125 12.1251C19.5542 12.2418 19.575 12.3668 19.575 12.5001C19.575 12.6334 19.5542 12.7584 19.5125 12.8751C19.4708 12.9918 19.4 13.1001 19.3 13.2001L12.7 19.8001C12.5167 19.9834 12.2875 20.0751 12.0125 20.0751C11.7375 20.0751 11.5 19.9834 11.3 19.8001C11.1 19.6001 11 19.3626 11 19.0876C11 18.8126 11.1 18.5751 11.3 18.3751L16.175 13.5001Z" fill="white"/>
</g>
</svg>
