<svg width="16" height="17" viewBox="0 0 16 17" fill="none" xmlns="http://www.w3.org/2000/svg">
<mask id="mask0_1_3806" style="mask-type:alpha" maskUnits="userSpaceOnUse" x="0" y="0" width="16" height="17">
<rect x="16" y="0.5" width="16" height="16" transform="rotate(90 16 0.5)" fill="#D9D9D9"/>
</mask>
<g mask="url(#mask0_1_3806)">
<path d="M7.9987 10.1483L12.8987 5.24828C13.0654 5.08162 13.2626 5.00106 13.4904 5.00662C13.7181 5.01217 13.9154 5.09828 14.082 5.26495C14.2487 5.43162 14.332 5.62884 14.332 5.85662C14.332 6.08439 14.2487 6.28162 14.082 6.44828L8.9487 11.5649C8.81536 11.6983 8.66536 11.7983 8.4987 11.8649C8.33203 11.9316 8.16536 11.9649 7.9987 11.9649C7.83203 11.9649 7.66536 11.9316 7.4987 11.8649C7.33203 11.7983 7.18203 11.6983 7.0487 11.5649L1.91537 6.43162C1.7487 6.26495 1.66814 6.0705 1.6737 5.84828C1.67925 5.62606 1.76536 5.43162 1.93203 5.26495C2.0987 5.09828 2.29592 5.01495 2.5237 5.01495C2.75148 5.01495 2.9487 5.09828 3.11537 5.26495L7.9987 10.1483Z" fill="#FBFBFB"/>
</g>
</svg>
