<svg width="24" height="24" viewBox="0 0 24 24" fill="none" xmlns="http://www.w3.org/2000/svg">
<path d="M23.6803 16.8655L12.7718 5.83221C12.6705 5.72963 12.5502 5.64825 12.4177 5.59272C12.2853 5.5372 12.1434 5.50862 12 5.50862C11.8566 5.50862 11.7147 5.5372 11.5823 5.59272C11.4498 5.64825 11.3295 5.72963 11.2282 5.83221L0.319681 16.8655C0.114993 17.0725 0 17.3533 0 17.6461C0 17.9388 0.114993 18.2196 0.319681 18.4267C0.52437 18.6337 0.801987 18.75 1.09146 18.75C1.38093 18.75 1.65855 18.6337 1.86324 18.4267L12 8.17264L22.1368 18.4267C22.2381 18.5292 22.3584 18.6105 22.4909 18.666C22.6233 18.7214 22.7652 18.75 22.9085 18.75C23.0519 18.75 23.1938 18.7214 23.3262 18.666C23.4586 18.6105 23.579 18.5292 23.6803 18.4267C23.7817 18.3242 23.8621 18.2025 23.9169 18.0685C23.9718 17.9346 24 17.791 24 17.6461C24 17.5011 23.9718 17.3575 23.9169 17.2236C23.8621 17.0897 23.7817 16.968 23.6803 16.8655Z" fill="#FBFBFB"/>
</svg>
