<svg width="16" height="17" viewBox="0 0 16 17" fill="none" xmlns="http://www.w3.org/2000/svg">
<mask id="mask0_1_3897" style="mask-type:alpha" maskUnits="userSpaceOnUse" x="0" y="0" width="16" height="17">
<rect y="0.5" width="16" height="16" fill="#D9D9D9"/>
</mask>
<g mask="url(#mask0_1_3897)">
<path d="M9.89131 8.50015L4.86951 3.47835C4.73703 3.34587 4.6725 3.18818 4.67591 3.00528C4.67933 2.82237 4.74728 2.66468 4.87976 2.53221C5.01224 2.39974 5.16993 2.3335 5.35283 2.3335C5.53573 2.3335 5.69342 2.39974 5.82589 2.53221L10.9297 7.64631C11.0503 7.76682 11.1396 7.90186 11.1977 8.05143C11.2558 8.20101 11.2849 8.35058 11.2849 8.50015C11.2849 8.64971 11.2558 8.79929 11.1977 8.94886C11.1396 9.09843 11.0503 9.23347 10.9297 9.35398L5.81564 14.4681C5.68316 14.6006 5.52718 14.6651 5.34769 14.6617C5.16821 14.6583 5.01224 14.5903 4.87976 14.4578C4.74728 14.3254 4.68104 14.1677 4.68104 13.9848C4.68104 13.8019 4.74728 13.6442 4.87976 13.5117L9.89131 8.50015Z" fill="#D3D3D3"/>
</g>
</svg>
