<svg width="14" height="14" viewBox="0 0 14 14" fill="none" xmlns="http://www.w3.org/2000/svg">
<mask id="mask0_86_348" style="mask-type:alpha" maskUnits="userSpaceOnUse" x="0" y="0" width="14" height="14">
<rect width="14" height="14" fill="#D9D9D9"/>
</mask>
<g mask="url(#mask0_86_348)">
<path d="M5.56904 8.8375L10.5128 3.89375C10.6295 3.77708 10.768 3.71875 10.9284 3.71875C11.0888 3.71875 11.2274 3.77708 11.344 3.89375C11.4607 4.01042 11.519 4.14896 11.519 4.30937C11.519 4.46979 11.4607 4.60833 11.344 4.725L5.97738 10.0917C5.86071 10.2083 5.7246 10.2667 5.56904 10.2667C5.41349 10.2667 5.27737 10.2083 5.16071 10.0917L2.65237 7.58333C2.53571 7.46667 2.47981 7.32812 2.48467 7.16771C2.48953 7.00729 2.55029 6.86875 2.66696 6.75208C2.78363 6.63542 2.92217 6.57708 3.08258 6.57708C3.243 6.57708 3.38154 6.63542 3.49821 6.75208L5.56904 8.8375Z" fill="#FBFBFB"/>
</g>
</svg>
