<svg width="20" height="20" viewBox="0 0 20 20" fill="none" xmlns="http://www.w3.org/2000/svg">
<mask id="mask0_276_486" style="mask-type:alpha" maskUnits="userSpaceOnUse" x="0" y="0" width="20" height="20">
<rect width="20" height="20" fill="#D9D9D9"/>
</mask>
<g mask="url(#mask0_276_486)">
<path d="M10.0026 11.1665L5.91927 15.2498C5.76649 15.4026 5.57205 15.479 5.33594 15.479C5.09983 15.479 4.90538 15.4026 4.7526 15.2498C4.59983 15.097 4.52344 14.9026 4.52344 14.6665C4.52344 14.4304 4.59983 14.2359 4.7526 14.0831L8.83594 9.9998L4.7526 5.91646C4.59983 5.76369 4.52344 5.56924 4.52344 5.33313C4.52344 5.09702 4.59983 4.90257 4.7526 4.7498C4.90538 4.59702 5.09983 4.52063 5.33594 4.52063C5.57205 4.52063 5.76649 4.59702 5.91927 4.7498L10.0026 8.83313L14.0859 4.7498C14.2387 4.59702 14.4332 4.52063 14.6693 4.52063C14.9054 4.52063 15.0998 4.59702 15.2526 4.7498C15.4054 4.90257 15.4818 5.09702 15.4818 5.33313C15.4818 5.56924 15.4054 5.76369 15.2526 5.91646L11.1693 9.9998L15.2526 14.0831C15.4054 14.2359 15.4818 14.4304 15.4818 14.6665C15.4818 14.9026 15.4054 15.097 15.2526 15.2498C15.0998 15.4026 14.9054 15.479 14.6693 15.479C14.4332 15.479 14.2387 15.4026 14.0859 15.2498L10.0026 11.1665Z" fill="#FBFBFB"/>
</g>
</svg>
