<svg width="16" height="16" viewBox="0 0 16 16" fill="none" xmlns="http://www.w3.org/2000/svg">
<mask id="mask0_276_474" style="mask-type:alpha" maskUnits="userSpaceOnUse" x="0" y="0" width="16" height="16">
<rect width="16" height="16" fill="#D9D9D9"/>
</mask>
<g mask="url(#mask0_276_474)">
<path d="M12.4628 12.3333H5.53977C5.20301 12.3333 4.91797 12.2166 4.68464 11.9833C4.4513 11.75 4.33464 11.4649 4.33464 11.1282V2.20513C4.33464 1.86838 4.4513 1.58333 4.68464 1.35C4.91797 1.11667 5.20301 1 5.53977 1H9.66925C9.82993 1 9.98441 1.0312 10.1327 1.0936C10.281 1.15599 10.4098 1.24188 10.5193 1.35128L13.3167 4.14868C13.4261 4.2581 13.5119 4.38694 13.5743 4.53523C13.6367 4.68352 13.6679 4.83801 13.6679 4.99868V11.1282C13.6679 11.4649 13.5513 11.75 13.3179 11.9833C13.0846 12.2166 12.7996 12.3333 12.4628 12.3333ZM12.668 4.99997H10.4757C10.2492 4.99997 10.0579 4.92197 9.90195 4.76598C9.74596 4.61001 9.66797 4.41877 9.66797 4.19228V1.99998H5.53977C5.48848 1.99998 5.44146 2.02135 5.39872 2.06408C5.35599 2.10683 5.33462 2.15385 5.33462 2.20513V11.1282C5.33462 11.1795 5.35599 11.2265 5.39872 11.2692C5.44146 11.312 5.48848 11.3333 5.53977 11.3333H12.4628C12.5141 11.3333 12.5611 11.312 12.6039 11.2692C12.6466 11.2265 12.668 11.1795 12.668 11.1282V4.99997ZM2.8731 15C2.53635 15 2.2513 14.8833 2.01797 14.65C1.78464 14.4166 1.66797 14.1316 1.66797 13.7948V5.5C1.66797 5.35812 1.71584 5.23932 1.81157 5.1436C1.90729 5.04787 2.02609 5 2.16797 5C2.30985 5 2.42865 5.04787 2.52437 5.1436C2.62009 5.23932 2.66795 5.35812 2.66795 5.5V13.7948C2.66795 13.8461 2.68932 13.8931 2.73205 13.9359C2.7748 13.9786 2.82181 14 2.8731 14H9.16794C9.30981 14 9.42861 14.0478 9.52434 14.1436C9.62007 14.2393 9.66794 14.3581 9.66794 14.5C9.66794 14.6419 9.62007 14.7607 9.52434 14.8564C9.42861 14.9521 9.30981 15 9.16794 15L2.8731 15Z" fill="#FBFBFB"/>
</g>
</svg>
