<svg width="20" height="20" viewBox="0 0 20 20" fill="none" xmlns="http://www.w3.org/2000/svg">
<mask id="mask0_276_483" style="mask-type:alpha" maskUnits="userSpaceOnUse" x="0" y="0" width="20" height="20">
<rect width="20" height="20" fill="#D9D9D9"/>
</mask>
<g mask="url(#mask0_276_483)">
<path d="M10.0013 18.3333C8.84852 18.3333 7.76519 18.1145 6.7513 17.677C5.73741 17.2395 4.85547 16.6458 4.10547 15.8958C3.35547 15.1458 2.76172 14.2638 2.32422 13.25C1.88672 12.2361 1.66797 11.1527 1.66797 9.99996C1.66797 8.84718 1.88672 7.76385 2.32422 6.74996C2.76172 5.73607 3.35547 4.85413 4.10547 4.10413C4.85547 3.35413 5.73741 2.76038 6.7513 2.32288C7.76519 1.88538 8.84852 1.66663 10.0013 1.66663C10.668 1.66663 11.3173 1.74301 11.9492 1.89579C12.5812 2.04857 13.1888 2.27079 13.7721 2.56246C13.9805 2.67357 14.1159 2.84024 14.1784 3.06246C14.2409 3.28468 14.2027 3.49301 14.0638 3.68746C13.9249 3.8819 13.7409 4.0069 13.5117 4.06246C13.2826 4.11801 13.0569 4.09024 12.8346 3.97913C12.3902 3.77079 11.9284 3.61107 11.4492 3.49996C10.9701 3.38885 10.4874 3.33329 10.0013 3.33329C8.15408 3.33329 6.58116 3.9826 5.28255 5.28121C3.98394 6.57982 3.33464 8.15274 3.33464 9.99996C3.33464 11.8472 3.98394 13.4201 5.28255 14.7187C6.58116 16.0173 8.15408 16.6666 10.0013 16.6666C11.8485 16.6666 13.4214 16.0173 14.7201 14.7187C16.0187 13.4201 16.668 11.8472 16.668 9.99996C16.668 9.88885 16.6645 9.78121 16.6576 9.67704C16.6506 9.57288 16.6402 9.46524 16.6263 9.35413C16.5985 9.11802 16.6437 8.89232 16.7617 8.67704C16.8798 8.46177 17.0569 8.3194 17.293 8.24996C17.5152 8.18051 17.7235 8.20135 17.918 8.31246C18.1124 8.42357 18.2235 8.59024 18.2513 8.81246C18.2791 9.0069 18.2999 9.20135 18.3138 9.39579C18.3277 9.59024 18.3346 9.79163 18.3346 9.99996C18.3346 11.1527 18.1159 12.2361 17.6784 13.25C17.2409 14.2638 16.6471 15.1458 15.8971 15.8958C15.1471 16.6458 14.2652 17.2395 13.2513 17.677C12.2374 18.1145 11.1541 18.3333 10.0013 18.3333ZM8.83464 11.5L16.5846 3.72913C16.7374 3.57635 16.9284 3.49649 17.1576 3.48954C17.3867 3.4826 17.5846 3.56246 17.7513 3.72913C17.9041 3.8819 17.9805 4.07635 17.9805 4.31246C17.9805 4.54857 17.9041 4.74301 17.7513 4.89579L9.41797 13.25C9.2513 13.4166 9.05686 13.5 8.83464 13.5C8.61241 13.5 8.41797 13.4166 8.2513 13.25L5.8763 10.875C5.72352 10.7222 5.64714 10.5277 5.64714 10.2916C5.64714 10.0555 5.72352 9.86107 5.8763 9.70829C6.02908 9.55552 6.22352 9.47913 6.45964 9.47913C6.69575 9.47913 6.89019 9.55552 7.04297 9.70829L8.83464 11.5Z" fill="#FBFBFB"/>
</g>
</svg>
