<svg width="18" height="19" viewBox="0 0 18 19" fill="none" xmlns="http://www.w3.org/2000/svg">
<mask id="mask0_428_303" style="mask-type:alpha" maskUnits="userSpaceOnUse" x="0" y="0" width="18" height="19">
<rect y="0.5" width="18" height="18" fill="#D9D9D9"/>
</mask>
<g mask="url(#mask0_428_303)">
<path d="M15.75 6.49995C16.15 6.49995 16.5 6.64995 16.8 6.94995C17.1 7.24995 17.25 7.59995 17.25 7.99995V9.49995C17.25 9.58745 17.2375 9.6812 17.2125 9.7812C17.1875 9.8812 17.1625 9.97495 17.1375 10.0625L14.8875 15.35C14.775 15.6 14.5875 15.8125 14.325 15.9875C14.0625 16.1625 13.7875 16.25 13.5 16.25H5.25V6.49995L9.75 2.03745C9.9375 1.84995 10.1594 1.74058 10.4156 1.70933C10.6719 1.67808 10.9187 1.72495 11.1562 1.84995C11.3938 1.97495 11.5687 2.14995 11.6812 2.37495C11.7937 2.59995 11.8188 2.8312 11.7563 3.0687L10.9125 6.49995H15.75ZM6.75 7.13745V14.75H13.5L15.75 9.49995V7.99995H9L10.0125 3.87495L6.75 7.13745ZM3 16.25C2.5875 16.25 2.23438 16.1031 1.94063 15.8093C1.64688 15.5156 1.5 15.1625 1.5 14.75V7.99995C1.5 7.58745 1.64688 7.23433 1.94063 6.94058C2.23438 6.64683 2.5875 6.49995 3 6.49995H5.25V7.99995H3V14.75H5.25V16.25H3Z" fill="#6047DF"/>
</g>
</svg>
