<svg width="18" height="19" viewBox="0 0 18 19" fill="none" xmlns="http://www.w3.org/2000/svg">
<path d="M15.4615 4H2.53846C2.39565 4 2.25869 4.05795 2.15771 4.16109C2.05673 4.26424 2 4.40413 2 4.55V13.9C2 14.1917 2.11346 14.4715 2.31542 14.6778C2.51739 14.8841 2.79131 15 3.07692 15H14.9231C15.2087 15 15.4826 14.8841 15.6846 14.6778C15.8865 14.4715 16 14.1917 16 13.9V4.55C16 4.40413 15.9433 4.26424 15.8423 4.16109C15.7413 4.05795 15.6043 4 15.4615 4ZM14.077 5.1L9 9.85406L3.92298 5.1H14.077ZM14.9231 13.9H3.07692V5.80056L8.63587 11.0056C8.73521 11.0988 8.86515 11.1505 9 11.1505C9.13485 11.1505 9.26479 11.0988 9.36414 11.0056L14.9231 5.80056V13.9Z" fill="#D3D3D3"/>
</svg>
