<svg width="40" height="41" viewBox="0 0 40 41" fill="none" xmlns="http://www.w3.org/2000/svg">
<mask id="mask0_1_3492" style="mask-type:alpha" maskUnits="userSpaceOnUse" x="0" y="0" width="40" height="41">
<rect y="0.5" width="40" height="40" fill="#D9D9D9"/>
</mask>
<g mask="url(#mask0_1_3492)">
<path d="M27.643 14.2563L12.0885 29.7948C11.8577 30.0256 11.5676 30.1383 11.2183 30.133C10.8689 30.1276 10.5789 30.0095 10.3481 29.7788C10.1173 29.548 10.002 29.2606 10.002 28.9166C10.002 28.5726 10.1173 28.2852 10.3481 28.0545L25.8866 12.4999H12.2263C11.8721 12.4999 11.5752 12.3801 11.3357 12.1404C11.0961 11.9007 10.9763 11.6037 10.9763 11.2494C10.9763 10.8951 11.0961 10.5983 11.3357 10.359C11.5752 10.1197 11.8721 10 12.2263 10H28.6365C29.0633 10 29.4211 10.1444 29.7098 10.4331C29.9986 10.7218 30.1429 11.0796 30.1429 11.5064V27.9166C30.1429 28.2708 30.0231 28.5677 29.7834 28.8072C29.5437 29.0468 29.2467 29.1666 28.8924 29.1666C28.5381 29.1666 28.2413 29.0468 28.002 28.8072C27.7626 28.5677 27.643 28.2708 27.643 27.9166V14.2563Z" fill="#FBFBFB"/>
</g>
</svg>
