<svg width="18" height="19" viewBox="0 0 18 19" fill="none" xmlns="http://www.w3.org/2000/svg">
<path d="M16.8199 16.45L12.9725 12.6034C14.0876 11.2647 14.6437 9.5475 14.525 7.80919C14.4063 6.07088 13.622 4.44524 12.3353 3.27045C11.0486 2.09565 9.35844 1.46216 7.61653 1.50175C5.87462 1.54134 4.21503 2.25096 2.98299 3.48299C1.75096 4.71503 1.04134 6.37462 1.00175 8.11653C0.962162 9.85844 1.59565 11.5486 2.77045 12.8353C3.94524 14.122 5.57088 14.9063 7.30919 15.025C9.0475 15.1437 10.7647 14.5876 12.1034 13.4725L15.95 17.3199C16.0071 17.377 16.0749 17.4223 16.1496 17.4532C16.2242 17.4841 16.3042 17.5 16.3849 17.5C16.4657 17.5 16.5457 17.4841 16.6203 17.4532C16.6949 17.4223 16.7627 17.377 16.8199 17.3199C16.877 17.2627 16.9223 17.1949 16.9532 17.1203C16.9841 17.0457 17 16.9657 17 16.8849C17 16.8042 16.9841 16.7242 16.9532 16.6496C16.9223 16.5749 16.877 16.5071 16.8199 16.45ZM2.24642 8.27888C2.24642 7.18467 2.57089 6.11502 3.17881 5.20521C3.78672 4.2954 4.65078 3.58629 5.6617 3.16755C6.67263 2.74882 7.78502 2.63925 8.85821 2.85273C9.93141 3.0662 10.9172 3.59311 11.6909 4.36684C12.4647 5.14057 12.9916 6.12636 13.205 7.19955C13.4185 8.27275 13.309 9.38514 12.8902 10.3961C12.4715 11.407 11.7624 12.271 10.8526 12.879C9.94275 13.4869 8.8731 13.8113 7.77888 13.8113C6.31208 13.8097 4.90582 13.2263 3.86864 12.1891C2.83145 11.1519 2.24805 9.74569 2.24642 8.27888Z" fill="#FBFBFB"/>
</svg>
