<svg width="18" height="19" viewBox="0 0 18 19" fill="none" xmlns="http://www.w3.org/2000/svg">
<mask id="mask0_243_5150" style="mask-type:alpha" maskUnits="userSpaceOnUse" x="0" y="0" width="18" height="19">
<rect y="0.5" width="18" height="18" fill="#D3D3D3"/>
</mask>
<g mask="url(#mask0_243_5150)">
<path d="M11.6048 12.8952L12.3952 12.1048L9.56246 9.27193V5.74998H8.4375V9.72787L11.6048 12.8952ZM9.00124 16.625C8.01579 16.625 7.08951 16.438 6.22241 16.064C5.3553 15.69 4.60104 15.1824 3.95963 14.5413C3.3182 13.9001 2.81041 13.1462 2.43624 12.2795C2.06208 11.4128 1.875 10.4867 1.875 9.50124C1.875 8.51579 2.062 7.58951 2.436 6.72241C2.81 5.8553 3.31756 5.10104 3.95869 4.45963C4.59983 3.8182 5.35376 3.31041 6.22048 2.93624C7.08719 2.56208 8.01328 2.375 8.99873 2.375C9.98418 2.375 10.9105 2.562 11.7776 2.936C12.6447 3.31 13.3989 3.81756 14.0403 4.45869C14.6818 5.09983 15.1896 5.85376 15.5637 6.72048C15.9379 7.58719 16.125 8.51328 16.125 9.49873C16.125 10.4842 15.938 11.4104 15.564 12.2776C15.19 13.1447 14.6824 13.8989 14.0413 14.5403C13.4001 15.1818 12.6462 15.6896 11.7795 16.0637C10.9128 16.4379 9.98669 16.625 9.00124 16.625ZM8.99998 15.5C10.6625 15.5 12.0781 14.9156 13.2469 13.7469C14.4156 12.5781 15 11.1625 15 9.49998C15 7.83748 14.4156 6.42186 13.2469 5.25311C12.0781 4.08436 10.6625 3.49998 8.99998 3.49998C7.33748 3.49998 5.92186 4.08436 4.75311 5.25311C3.58436 6.42186 2.99998 7.83748 2.99998 9.49998C2.99998 11.1625 3.58436 12.5781 4.75311 13.7469C5.92186 14.9156 7.33748 15.5 8.99998 15.5Z" fill="#D3D3D3"/>
</g>
</svg>
