<svg width="105" height="27" viewBox="0 0 105 27" fill="none" xmlns="http://www.w3.org/2000/svg">
<path d="M22.9032 6.13736L12.2606 11.9196V15.3409L21.6829 10.2267V18.8619L12.2364 23.6548L3.12175 18.8721L3.03878 8.57607L12.2139 3.33843L17.7694 6.49928L20.485 4.82499L12.2364 0L0 6.77664L0.110627 20.6512L12.1119 26.9476L12.2122 27L24.5903 20.7206L24.7078 20.6614V7.06245L22.9032 6.13736Z" fill="#6047DF"/>
<path d="M12.2216 9.22713V5.77539L5.53731 9.76831L5.43359 9.83089V17.744L12.2302 21.2702L17.4815 18.6826V15.3865L12.2354 17.9892L8.45855 15.9818V11.5035L12.2216 9.22713Z" fill="#6047DF"/>
<path d="M34.7891 24.9214L41.7589 2.03906H46.78L53.7339 24.9214H49.5551L47.9953 19.8726H40.5115L38.9838 24.9214H34.7891ZM41.6652 15.937H46.8416L44.2538 7.43967L41.6652 15.937Z" fill="white"/>
<path d="M56.1641 2.03906H60.1866V24.9214H56.1641V2.03906Z" fill="white"/>
<path d="M63.6484 20.6968H67.9673V24.9214H63.6484V20.6968Z" fill="white"/>
<path d="M71.25 5.31906L74.302 2.03906H83.5102L86.5605 5.31906V9.46772H82.8991V7.3026L81.6652 5.95979H76.1605L74.9248 7.3026V19.6596L76.1452 20.9858H81.665L82.899 19.6596V16.5166H80.0327V12.581H86.5603V21.6415L83.5102 24.9214H74.302L71.25 21.6415V5.31906Z" fill="white"/>
<path d="M89.6875 5.31906L92.7378 2.03906H101.948L104.998 5.31906V21.6415L101.948 24.9214H92.7378L89.6875 21.6415V5.31906ZM93.3488 19.6596L94.5828 20.9858H100.103L101.337 19.6596V7.3026L100.103 5.97474H94.5828L93.3488 7.3026V19.6596Z" fill="white"/>
</svg>
