<svg width="20" height="20" viewBox="0 0 20 20" fill="none" xmlns="http://www.w3.org/2000/svg">
<mask id="mask0_114_223" style="mask-type:alpha" maskUnits="userSpaceOnUse" x="0" y="0" width="20" height="20">
<rect width="20" height="20" fill="#D9D9D9"/>
</mask>
<g mask="url(#mask0_114_223)">
<path d="M12.2449 15.0001C11.7096 15.0001 11.2553 14.8134 10.8819 14.44C10.5085 14.0666 10.3218 13.6123 10.3218 13.077C10.3218 12.5418 10.5085 12.0875 10.8819 11.7141C11.2553 11.3407 11.7096 11.154 12.2449 11.154C12.7801 11.154 13.2345 11.3407 13.6079 11.7141C13.9813 12.0875 14.1679 12.5418 14.1679 13.077C14.1679 13.6123 13.9813 14.0666 13.6079 14.44C13.2345 14.8134 12.7801 15.0001 12.2449 15.0001ZM4.42439 17.9167C4.00344 17.9167 3.64714 17.7709 3.35547 17.4792C3.0638 17.1876 2.91797 16.8313 2.91797 16.4103V5.25653C2.91797 4.83559 3.0638 4.47928 3.35547 4.18762C3.64714 3.89595 4.00344 3.75012 4.42439 3.75012H5.57824V2.6283C5.57824 2.44562 5.63941 2.29312 5.76174 2.17078C5.88406 2.04846 6.03657 1.9873 6.21926 1.9873C6.40194 1.9873 6.55445 2.04846 6.67678 2.17078C6.7991 2.29312 6.86026 2.44562 6.86026 2.6283V3.75012H13.1743V2.61228C13.1743 2.43494 13.2342 2.28644 13.3538 2.16678C13.4735 2.04713 13.622 1.9873 13.7993 1.9873C13.9767 1.9873 14.1252 2.04713 14.2448 2.16678C14.3645 2.28644 14.4243 2.43494 14.4243 2.61228V3.75012H15.5782C15.9991 3.75012 16.3554 3.89595 16.6471 4.18762C16.9388 4.47928 17.0846 4.83559 17.0846 5.25653V16.4103C17.0846 16.8313 16.9388 17.1876 16.6471 17.4792C16.3554 17.7709 15.9991 17.9167 15.5782 17.9167H4.42439ZM4.42439 16.6668H15.5782C15.6423 16.6668 15.7011 16.6401 15.7545 16.5866C15.8079 16.5332 15.8346 16.4744 15.8346 16.4103V8.58987H4.16795V16.4103C4.16795 16.4744 4.19466 16.5332 4.24807 16.5866C4.3015 16.6401 4.36027 16.6668 4.42439 16.6668ZM4.16795 7.33989H15.8346V5.25653C15.8346 5.19242 15.8079 5.13365 15.7545 5.08022C15.7011 5.02681 15.6423 5.0001 15.5782 5.0001H4.42439C4.36027 5.0001 4.3015 5.02681 4.24807 5.08022C4.19466 5.13365 4.16795 5.19242 4.16795 5.25653V7.33989Z" fill="#FBFBFB"/>
</g>
</svg>
