<svg width="20" height="20" viewBox="0 0 20 20" fill="none" xmlns="http://www.w3.org/2000/svg">
<mask id="mask0_114_220" style="mask-type:alpha" maskUnits="userSpaceOnUse" x="0" y="0" width="20" height="20">
<rect width="20" height="20" fill="#D9D9D9"/>
</mask>
<g mask="url(#mask0_114_220)">
<path d="M7.50128 13.3815C6.96603 13.3815 6.5117 13.1948 6.1383 12.8214C5.76491 12.448 5.57822 11.9937 5.57822 11.4584C5.57822 10.9232 5.76491 10.4688 6.1383 10.0955C6.5117 9.72205 6.96603 9.53535 7.50128 9.53535C8.03653 9.53535 8.49086 9.72205 8.86426 10.0955C9.23765 10.4688 9.42434 10.9232 9.42434 11.4584C9.42434 11.9937 9.23765 12.448 8.86426 12.8214C8.49086 13.1948 8.03653 13.3815 7.50128 13.3815ZM4.42439 17.9167C4.00344 17.9167 3.64714 17.7709 3.35547 17.4792C3.0638 17.1876 2.91797 16.8313 2.91797 16.4103V5.25653C2.91797 4.83559 3.0638 4.47928 3.35547 4.18762C3.64714 3.89595 4.00344 3.75012 4.42439 3.75012H5.57824V2.6283C5.57824 2.44562 5.63941 2.29312 5.76174 2.17078C5.88406 2.04846 6.03657 1.9873 6.21926 1.9873C6.40194 1.9873 6.55445 2.04846 6.67678 2.17078C6.7991 2.29312 6.86026 2.44562 6.86026 2.6283V3.75012H13.1743V2.61228C13.1743 2.43494 13.2342 2.28644 13.3538 2.16678C13.4735 2.04713 13.622 1.9873 13.7993 1.9873C13.9767 1.9873 14.1252 2.04713 14.2448 2.16678C14.3645 2.28644 14.4243 2.43494 14.4243 2.61228V3.75012H15.5782C15.9991 3.75012 16.3554 3.89595 16.6471 4.18762C16.9388 4.47928 17.0846 4.83559 17.0846 5.25653V16.4103C17.0846 16.8313 16.9388 17.1876 16.6471 17.4792C16.3554 17.7709 15.9991 17.9167 15.5782 17.9167H4.42439ZM4.42439 16.6668H15.5782C15.6423 16.6668 15.7011 16.6401 15.7545 16.5866C15.8079 16.5332 15.8346 16.4744 15.8346 16.4103V8.58987H4.16795V16.4103C4.16795 16.4744 4.19466 16.5332 4.24807 16.5866C4.3015 16.6401 4.36027 16.6668 4.42439 16.6668ZM4.16795 7.33989H15.8346V5.25653C15.8346 5.19242 15.8079 5.13365 15.7545 5.08022C15.7011 5.02681 15.6423 5.0001 15.5782 5.0001H4.42439C4.36027 5.0001 4.3015 5.02681 4.24807 5.08022C4.19466 5.13365 4.16795 5.19242 4.16795 5.25653V7.33989Z" fill="#FBFBFB"/>
</g>
</svg>
