<svg width="16" height="17" viewBox="0 0 16 17" fill="none" xmlns="http://www.w3.org/2000/svg">
<mask id="mask0_86_243" style="mask-type:alpha" maskUnits="userSpaceOnUse" x="0" y="0" width="16" height="17">
<rect y="0.5" width="16" height="16" fill="#D9D9D9"/>
</mask>
<g mask="url(#mask0_86_243)">
<path d="M5.99922 9.16621C5.81033 9.16621 5.652 9.10232 5.52422 8.97454C5.39644 8.84677 5.33255 8.68843 5.33255 8.49954V4.38288L4.08255 5.63288C3.96033 5.7551 3.80755 5.81621 3.62422 5.81621C3.44089 5.81621 3.28255 5.7551 3.14922 5.63288C3.01589 5.49954 2.94922 5.34121 2.94922 5.15788C2.94922 4.97454 3.01589 4.81621 3.14922 4.68288L5.53255 2.29954C5.59922 2.23288 5.67144 2.18566 5.74922 2.15788C5.827 2.1301 5.91033 2.11621 5.99922 2.11621C6.08811 2.11621 6.17144 2.1301 6.24922 2.15788C6.327 2.18566 6.39922 2.23288 6.46589 2.29954L8.86589 4.69954C8.99922 4.83288 9.06311 4.98843 9.05755 5.16621C9.052 5.34399 8.98255 5.49954 8.84922 5.63288C8.71589 5.7551 8.56033 5.81899 8.38255 5.82454C8.20477 5.8301 8.04922 5.76621 7.91589 5.63288L6.66589 4.38288V8.49954C6.66589 8.68843 6.602 8.84677 6.47422 8.97454C6.34644 9.10232 6.18811 9.16621 5.99922 9.16621ZM9.99922 14.8829C9.91033 14.8829 9.827 14.869 9.74922 14.8412C9.67144 14.8134 9.59922 14.7662 9.53255 14.6995L7.13255 12.2995C6.99922 12.1662 6.93533 12.0107 6.94089 11.8329C6.94644 11.6551 7.01589 11.4995 7.14922 11.3662C7.28255 11.244 7.43811 11.1801 7.61589 11.1745C7.79366 11.169 7.94922 11.2329 8.08255 11.3662L9.33255 12.6162V8.49954C9.33255 8.31066 9.39644 8.15232 9.52422 8.02454C9.652 7.89677 9.81033 7.83288 9.99922 7.83288C10.1881 7.83288 10.3464 7.89677 10.4742 8.02454C10.602 8.15232 10.6659 8.31066 10.6659 8.49954V12.6162L11.9159 11.3662C12.0381 11.244 12.1909 11.1829 12.3742 11.1829C12.5576 11.1829 12.7159 11.244 12.8492 11.3662C12.9826 11.4995 13.0492 11.6579 13.0492 11.8412C13.0492 12.0245 12.9826 12.1829 12.8492 12.3162L10.4659 14.6995C10.3992 14.7662 10.327 14.8134 10.2492 14.8412C10.1714 14.869 10.0881 14.8829 9.99922 14.8829Z" fill="#FBFBFB"/>
</g>
</svg>
