<svg width="20" height="20" viewBox="0 0 20 20" fill="none" xmlns="http://www.w3.org/2000/svg">
<mask id="mask0_86_269" style="mask-type:alpha" maskUnits="userSpaceOnUse" x="0" y="0" width="20" height="20">
<rect width="20" height="20" fill="#D9D9D9"/>
</mask>
<g mask="url(#mask0_86_269)">
<path d="M15.8059 13.3735L11.3123 8.92955C11.2589 8.88147 11.1975 8.85743 11.128 8.85743C11.0586 8.85743 10.9998 8.88147 10.9517 8.92955L8.87 11.0113C8.57726 11.304 8.21883 11.4504 7.79469 11.4504C7.37055 11.4504 7.01478 11.304 6.72738 11.0113L2.52387 6.77411C2.40849 6.65873 2.34732 6.51584 2.34037 6.34545C2.33343 6.17504 2.3946 6.0252 2.52387 5.89593C2.6446 5.7752 2.79096 5.71484 2.96296 5.71484C3.13497 5.71484 3.28134 5.7752 3.40206 5.89593L7.61038 10.1042C7.65846 10.1523 7.7199 10.1764 7.79469 10.1764C7.86948 10.1764 7.93092 10.1523 7.979 10.1042L10.0607 8.02253C10.3481 7.73513 10.7039 7.59143 11.128 7.59143C11.5522 7.59143 11.9079 7.73513 12.1953 8.02253L16.6681 12.4953V10.6651C16.6681 10.4878 16.7279 10.3393 16.8476 10.2196C16.9672 10.1 17.1157 10.0401 17.2931 10.0401C17.4704 10.0401 17.6189 10.1 17.7386 10.2196C17.8582 10.3393 17.9181 10.4878 17.9181 10.6651V13.8702C17.9181 14.085 17.8462 14.2642 17.7025 14.4079C17.5588 14.5516 17.3796 14.6234 17.1649 14.6234H13.9597C13.7824 14.6234 13.6339 14.5636 13.5142 14.444C13.3946 14.3243 13.3348 14.1758 13.3348 13.9984C13.3348 13.8211 13.3946 13.6726 13.5142 13.5529C13.6339 13.4333 13.7824 13.3735 13.9597 13.3735H15.8059Z" fill="#FBFBFB"/>
</g>
</svg>
