<svg width="20" height="20" viewBox="0 0 20 20" fill="none" xmlns="http://www.w3.org/2000/svg">
<mask id="mask0_86_263" style="mask-type:alpha" maskUnits="userSpaceOnUse" x="0" y="0" width="20" height="20">
<rect width="20" height="20" fill="#D9D9D9"/>
</mask>
<g mask="url(#mask0_86_263)">
<path d="M2.52387 14.3828C2.3946 14.2535 2.33343 14.105 2.34037 13.9373C2.34732 13.7696 2.40849 13.628 2.52387 13.5126L6.72738 9.25461C7.01478 8.96188 7.37055 8.81552 7.79469 8.81552C8.21883 8.81552 8.57726 8.96188 8.87 9.25461L10.9517 11.3492C10.9998 11.3972 11.0586 11.4213 11.128 11.4213C11.1975 11.4213 11.2589 11.3972 11.3123 11.3492L15.8059 6.90523H13.9597C13.7824 6.90523 13.6339 6.84541 13.5142 6.72575C13.3946 6.6061 13.3348 6.4576 13.3348 6.28025C13.3348 6.1029 13.3946 5.95441 13.5142 5.83475C13.6339 5.7151 13.7824 5.65527 13.9597 5.65527H17.1649C17.3796 5.65527 17.5588 5.72712 17.7025 5.87082C17.8462 6.01451 17.9181 6.19373 17.9181 6.40846V9.61359C17.9181 9.79093 17.8582 9.93943 17.7386 10.0591C17.6189 10.1787 17.4704 10.2386 17.2931 10.2386C17.1157 10.2386 16.9672 10.1801 16.8476 10.0631C16.7279 9.94612 16.6681 9.79895 16.6681 9.62161V7.78342L12.1953 12.2562C11.9079 12.5436 11.5522 12.6873 11.128 12.6873C10.7039 12.6873 10.3481 12.5436 10.0607 12.2562L7.979 10.1745C7.93092 10.1264 7.86948 10.1023 7.79469 10.1023C7.7199 10.1023 7.65846 10.1264 7.61038 10.1745L3.40206 14.3828C3.28134 14.5035 3.13497 14.5639 2.96296 14.5639C2.79096 14.5639 2.6446 14.5035 2.52387 14.3828Z" fill="#FBFBFB"/>
</g>
</svg>
